<?xml version="1.0" encoding="UTF-8"?>
<svg width="62px" height="47px" viewBox="0 0 62 47" version="1.1" xmlns="http://www.w3.org/2000/svg" xmlns:xlink="http://www.w3.org/1999/xlink">
    <!-- Generator: Sketch 42 (36781) - http://www.bohemiancoding.com/sketch -->
    <title>correct-symbol</title>
    <desc>Created with Sketch.</desc>
    <defs></defs>
    <g id="konfig" stroke="none" stroke-width="1" fill="none" fill-rule="evenodd">
        <g id="Steg-5" transform="translate(-473.000000, -355.000000)" fill="#33A668">
            <g id="Group-3" transform="translate(419.000000, 293.000000)">
                <g id="correct-symbol" transform="translate(54.000000, 62.000000)">
                    <g id="Capa_1">
                        <path d="M60.0686265,6.56603824 L54.7012265,1.19863824 C53.9652618,0.462120588 53.0701882,0.0937235294 52.0180794,0.0937235294 C50.9650029,0.0937235294 50.0699294,0.462120588 49.3339647,1.19863824 L23.4433235,27.1284 L11.8399912,15.4855324 C11.1031971,14.7487382 10.2086765,14.3807559 9.15656765,14.3807559 C8.10376765,14.3807559 7.20924706,14.7487382 6.47245294,15.4855324 L1.10505294,20.8530706 C0.368258824,21.5897265 0,22.4845235 0,23.5371853 C0,24.5890176 0.368258824,25.4846441 1.10505294,26.2211618 L15.3918088,40.5076412 L20.7596235,45.8750412 C21.4960029,46.6121118 22.3908,46.9800941 23.4433235,46.9800941 C24.4954324,46.9800941 25.3902294,46.6111441 26.1270235,45.8750412 L31.4947,40.5076412 L60.0686265,11.9338529 C60.8047294,11.1970588 61.1736794,10.3024 61.1736794,9.24973824 C61.1742324,8.19762941 60.8047294,7.30283235 60.0686265,6.56603824 Z" id="Shape"></path>
                    </g>
                </g>
            </g>
        </g>
    </g>
</svg>