<?xml version="1.0" encoding="UTF-8"?>
<svg width="47px" height="47px" viewBox="0 0 47 47" version="1.1" xmlns="http://www.w3.org/2000/svg" xmlns:xlink="http://www.w3.org/1999/xlink">
    <!-- Generator: Sketch 42 (36781) - http://www.bohemiancoding.com/sketch -->
    <title>delete-cross</title>
    <desc>Created with Sketch.</desc>
    <defs></defs>
    <g id="konfig" stroke="none" stroke-width="1" fill="none" fill-rule="evenodd">
        <g id="Steg-5" transform="translate(-697.000000, -355.000000)" fill="#DF4749">
            <g id="Group-2" transform="translate(635.000000, 293.000000)">
                <g id="delete-cross" transform="translate(62.000000, 62.000000)">
                    <g id="Capa_1">
                        <path d="M46.1674286,34.4273025 C47.1400784,35.400084 47.1400784,36.9767563 46.1675602,37.9495378 L37.9496695,46.1674286 C36.9767563,47.1402101 35.400084,47.1399468 34.4273025,46.1674286 L23.4485238,35.1883866 L12.4693501,46.1674286 C11.4969636,47.1400784 9.92002801,47.1399468 8.94737815,46.1674286 L0.729487395,37.9494062 C-0.243162465,36.9767563 -0.243030812,35.400084 0.729619048,34.4276975 L11.7087927,23.4485238 L0.7297507,12.4694818 C-0.242767507,11.4969636 -0.242767507,9.92002801 0.729619048,8.94764146 L8.94777311,0.729619048 C9.92029132,-0.243030812 11.4972269,-0.24289916 12.4694818,0.729619048 L23.4486555,11.7087927 L34.4275658,0.729619048 C35.4002157,-0.24289916 36.976888,-0.243030812 37.9496695,0.729619048 L46.1676919,8.9475098 C47.1402101,9.92015966 47.1403417,11.4970952 46.1676919,12.4696134 L35.1885182,23.4485238 L46.1674286,34.4273025 Z" id="Shape"></path>
                    </g>
                </g>
            </g>
        </g>
    </g>
</svg>