<?xml version="1.0" encoding="UTF-8"?>
<svg width="20px" height="20px" viewBox="0 0 20 20" version="1.1" xmlns="http://www.w3.org/2000/svg" xmlns:xlink="http://www.w3.org/1999/xlink">
    <!-- Generator: Sketch 42 (36781) - http://www.bohemiancoding.com/sketch -->
    <title>facebook</title>
    <desc>Created with Sketch.</desc>
    <defs></defs>
    <g id="konfig" stroke="none" stroke-width="1" fill="none" fill-rule="evenodd">
        <g id="Steg-4" transform="translate(-1294.000000, -45.000000)">
            <g id="Group-2-Copy">
                <g id="facebook" transform="translate(1294.000000, 45.000000)">
                    <polygon id="Stroke-1" stroke-opacity="0.00784313771" stroke="#000000" stroke-width="1.33333335e-11" points="0 0 19.9999996 0 19.9999996 19.9999996 0 19.9999996"></polygon>
                    <g id="Group-4">
                        <path d="M20.0000008,10.0000004 C19.9999994,11.3260828 19.7462647,12.6016937 19.2387952,13.8268333 C18.7313245,15.0519728 18.0087488,16.1333836 17.0710683,17.0710655 C16.1333863,18.0087461 15.0519742,18.7313218 13.8268333,19.2387925 C12.6016937,19.7462634 11.3260828,19.9999994 10.0000004,20.0000008 C8.67391738,19.9999994 7.39830576,19.7462647 6.17316554,19.2387952 C4.94802497,18.7313245 3.86661387,18.0087488 2.92893221,17.0710683 C1.99125023,16.1333863 1.26867438,15.0519742 0.761204625,13.8268333 C0.253734875,12.6016937 0,11.3260828 0,10.0000004 C0,8.67391738 0.253734875,7.39830576 0.761204625,6.17316554 C1.26867438,4.94802497 1.99125023,3.86661387 2.92893221,2.92893221 C3.86661387,1.99125023 4.94802497,1.26867438 6.17316554,0.761204625 C7.39830576,0.253734875 8.67391738,0 10.0000004,0 C11.3260828,0 12.6016937,0.253734875 13.8268333,0.761204625 C15.0519728,1.26867438 16.1333836,1.99125023 17.0710655,2.92893221 C18.0087461,3.86661387 18.7313218,4.94802497 19.2387925,6.17316554 C19.7462634,7.39830576 19.9999994,8.67391738 20.0000008,10.0000004 Z" id="Fill-2" fill="#3B5998"></path>
                        <path d="M12.5139933,10.3914581 L10.7296155,10.3914581 L10.7296155,16.9285907 L8.02613351,16.9285907 L8.02613351,10.3914581 L6.74034762,10.3914581 L6.74034762,8.09404978 L8.02613351,8.09404978 L8.02613351,6.60736565 C8.02613351,5.54422597 8.53114266,3.87946053 10.7536816,3.87946053 L12.7562482,3.88783923 L12.7562482,6.1178654 L11.303255,6.1178654 C11.0649217,6.1178654 10.7297944,6.23694261 10.7297944,6.74409105 L10.7297944,8.09618907 L12.750188,8.09618907 L12.5139933,10.3914581 Z" id="Fill-3" fill="#FFFFFF"></path>
                    </g>
                </g>
            </g>
        </g>
    </g>
</svg>