<?xml version="1.0" encoding="UTF-8"?>
<svg width="47px" height="47px" viewBox="0 0 47 47" version="1.1" xmlns="http://www.w3.org/2000/svg" xmlns:xlink="http://www.w3.org/1999/xlink">
    <!-- Generator: Sketch 42 (36781) - http://www.bohemiancoding.com/sketch -->
    <title>question</title>
    <desc>Created with Sketch.</desc>
    <defs></defs>
    <g id="konfig" stroke="none" stroke-width="1" fill="none" fill-rule="evenodd">
        <g id="Steg-4" transform="translate(-913.000000, -355.000000)" fill="#7E7E7E">
            <g id="Group" transform="translate(851.000000, 293.000000)">
                <g id="question" transform="translate(62.000000, 62.000000)">
                    <g id="Layer_1">
                        <rect id="Rectangle-path" x="21.1334895" y="32.8743536" width="4.69636768" height="4.69636768"></rect>
                        <path d="M23.4816183,0 C10.5131405,0 0,10.5131405 0,23.4816183 C0,36.450096 10.5131405,46.9632365 23.4816183,46.9632365 C36.450096,46.9632365 46.9632365,36.450096 46.9632365,23.4816183 C46.9632365,10.5131405 36.4502061,0 23.4816183,0 Z M23.4816183,42.7130937 C12.8603888,42.7130937 4.25014286,34.1028478 4.25014286,23.4816183 C4.25014286,12.8603888 12.8603888,4.25014286 23.4816183,4.25014286 C34.0974543,4.26302108 42.7001054,12.8656721 42.7130937,23.4816183 C42.7130937,34.1029578 34.1029578,42.7130937 23.4816183,42.7130937 Z" id="Shape"></path>
                        <path d="M32.6160187,16.5545667 C31.4081077,11.5097166 26.3392623,8.39935129 21.2944122,9.6072623 C17.0530749,10.6227705 14.06874,14.4241569 14.088993,18.7853607 L18.7853607,18.7853607 C19.0058314,16.1916651 21.2871475,14.2677471 23.8808431,14.4882178 C26.4745386,14.7086885 28.3984567,16.9900047 28.1779859,19.5837002 C27.6982998,21.91763 25.6045433,23.5648314 23.2233934,23.4816183 C22.0691967,23.4816183 21.1334895,24.4173255 21.1334895,25.5715222 L21.1334895,25.5715222 L21.1334895,30.5261148 L25.8298571,30.5261148 L25.8298571,27.8492061 C30.7962272,26.5685386 33.8171054,21.5408595 32.6160187,16.5545667 Z" id="Shape"></path>
                    </g>
                </g>
            </g>
        </g>
    </g>
</svg>