<?xml version="1.0" encoding="UTF-8"?>
<svg width="138px" height="138px" viewBox="0 0 138 138" version="1.1" xmlns="http://www.w3.org/2000/svg" xmlns:xlink="http://www.w3.org/1999/xlink">
    <!-- Generator: Sketch 42 (36781) - http://www.bohemiancoding.com/sketch -->
    <title>question</title>
    <desc>Created with Sketch.</desc>
    <defs></defs>
    <g id="Page-1" stroke="none" stroke-width="1" fill="none" fill-rule="evenodd">
        <g id="home" transform="translate(-1093.000000, -761.000000)">
            <g id="produktkonfig" transform="translate(0.000000, 670.000000)">
                <g id="question" transform="translate(1093.000000, 91.000000)">
                    <g id="Layer_1">
                        <circle id="Oval" fill="#90DFAA" cx="69" cy="69" r="69"></circle>
                        <path d="M71.526378,23.769685 C47.9468504,23.769685 28.8224409,42.8940945 28.8224409,66.473622 C28.8224409,73.8625984 30.6968504,80.8169291 34.0110236,86.8748031 L28.8224409,109.177559 L51.1251969,103.988976 C57.1830709,107.30315 64.1374016,109.177559 71.526378,109.177559 C95.1059055,109.177559 114.230315,90.0531496 114.230315,66.473622 C114.230315,42.8940945 95.1059055,23.769685 71.526378,23.769685 Z" id="Shape" fill="#FFFFFF"></path>
                        <path d="M73.7811024,76.1444882 L65.8216535,76.1444882 L65.8216535,71.8523622 C65.8216535,69.9779528 66.0389764,68.5653543 66.5007874,67.6688976 C66.9354331,66.7452756 67.9133858,65.55 69.4346457,64.0559055 L74.5688976,58.9216535 C75.6555118,57.7535433 76.1988189,56.2866142 76.1988189,54.5480315 C76.1988189,52.8094488 75.6283465,51.369685 74.5145669,50.2287402 C73.373622,49.0877953 71.9338583,48.4901575 70.1409449,48.4901575 C68.3480315,48.4901575 66.8811024,49.0334646 65.6586614,50.1472441 C64.4633858,51.2610236 63.7570866,52.7279528 63.5669291,54.5480315 L55.0370079,54.5480315 C55.4988189,50.3645669 57.1287402,47.1047244 59.9267717,44.7413386 C62.7248031,42.3779528 66.2019685,41.1826772 70.3854331,41.1826772 C74.5688976,41.1826772 77.9645669,42.323622 80.5996063,44.6055118 C83.2346457,46.8874016 84.5385827,50.065748 84.5385827,54.1405512 C84.5385827,56.965748 83.7779528,59.3019685 82.2295276,61.176378 C81.3330709,62.2901575 80.653937,63.1051181 80.192126,63.5669291 C79.730315,64.0287402 79.1055118,64.626378 78.3177165,65.3598425 C77.5299213,66.0933071 76.8779528,66.7181102 76.3346457,67.2614173 C75.7913386,67.8047244 75.3566929,68.2665354 75.0307087,68.6468504 C74.1885827,69.6791339 73.753937,71.146063 73.753937,73.0204724 L73.753937,76.1444882 L73.7811024,76.1444882 L73.7811024,76.1444882 Z M69.9507874,91.7917323 C68.4838583,91.7917323 67.2070866,91.2755906 66.1204724,90.2704724 C65.0338583,89.2653543 64.4905512,88.0429134 64.4905512,86.6031496 C64.4905512,85.1633858 65.0066929,83.9409449 66.0661417,82.9086614 C67.1255906,81.876378 68.4023622,81.3602362 69.8692913,81.3602362 C71.3362205,81.3602362 72.6129921,81.876378 73.6996063,82.8814961 C74.7862205,83.8866142 75.3023622,85.1090551 75.3023622,86.5488189 C75.3023622,87.9885827 74.7862205,89.2110236 73.7267717,90.2433071 C72.6944882,91.2755906 71.4177165,91.7917323 69.9507874,91.7917323 Z" id="Shape" fill="#5091BD"></path>
                    </g>
                </g>
            </g>
        </g>
    </g>
</svg>