<?xml version="1.0" encoding="UTF-8"?>
<svg width="47px" height="47px" viewBox="0 0 47 47" version="1.1" xmlns="http://www.w3.org/2000/svg" xmlns:xlink="http://www.w3.org/1999/xlink">
    <!-- Generator: Sketch 42 (36781) - http://www.bohemiancoding.com/sketch -->
    <title>emoticon-square-smiling-face-with-closed-eyes</title>
    <desc>Created with Sketch.</desc>
    <defs></defs>
    <g id="konfig" stroke="none" stroke-width="1" fill="none" fill-rule="evenodd">
        <g id="Steg-4" transform="translate(-697.000000, -355.000000)" fill="#33A668">
            <g id="Group-2" transform="translate(635.000000, 293.000000)">
                <g id="emoticon-square-smiling-face-with-closed-eyes" transform="translate(61.000000, 62.000000)">
                    <g id="Capa_1">
                        <path d="M30.062,9.086 C30.062,4.289 33.966,0.385 38.765,0.385 C43.562,0.385 47.466,4.288 47.466,9.086 C47.466,10.467 46.347,11.586 44.966,11.586 C43.585,11.586 42.466,10.467 42.466,9.086 C42.466,7.045 40.806,5.385 38.765,5.385 C36.723,5.385 35.062,7.045 35.062,9.086 C35.062,10.467 33.943,11.586 32.562,11.586 C31.181,11.586 30.062,10.466 30.062,9.086 Z M2.339,9.059 C2.339,4.262 6.243,0.358 11.042,0.358 C15.839,0.358 19.743,4.261 19.743,9.059 C19.743,10.44 18.624,11.559 17.243,11.559 C15.862,11.559 14.743,10.44 14.743,9.059 C14.743,7.018 13.083,5.358 11.042,5.358 C9,5.358 7.339,7.018 7.339,9.059 C7.339,10.44 6.22,11.559 4.839,11.559 C3.458,11.559 2.339,10.44 2.339,9.059 Z M1.23,31.41 C0.594,29.88 1.319,28.124 2.85,27.489 C3.226,27.333 3.616,27.259 4,27.259 C5.176,27.259 6.292,27.955 6.771,29.11 C9.548,35.795 16.426,40.114 24.294,40.114 C31.984,40.114 38.822,35.793 41.715,29.103 C42.373,27.582 44.139,26.88 45.658,27.54 C47.179,28.198 47.879,29.963 47.221,31.484 C43.38,40.37 34.38,46.112 24.294,46.112 C13.993,46.113 4.94,40.342 1.23,31.41 Z" id="Shape"></path>
                    </g>
                </g>
            </g>
        </g>
    </g>
</svg>