<?xml version="1.0" encoding="UTF-8"?>
<svg width="51px" height="47px" viewBox="0 0 51 47" version="1.1" xmlns="http://www.w3.org/2000/svg" xmlns:xlink="http://www.w3.org/1999/xlink">
    <!-- Generator: Sketch 42 (36781) - http://www.bohemiancoding.com/sketch -->
    <title>warning</title>
    <desc>Created with Sketch.</desc>
    <defs></defs>
    <g id="konfig" stroke="none" stroke-width="1" fill="none" fill-rule="evenodd">
        <g id="Steg-4" transform="translate(-479.000000, -355.000000)" fill="#D0011B">
            <g id="Group-3" transform="translate(419.000000, 293.000000)">
                <g id="warning" transform="translate(60.000000, 62.000000)">
                    <g id="Capa_1">
                        <g id="Group">
                            <path d="M25.4295816,33.0245605 C24.0076788,33.0245605 22.8157897,34.2259058 22.8157897,35.6590897 C22.8157897,37.0922735 24.0076788,38.2936188 25.4295816,38.2936188 C26.7992086,38.2936188 28.0433735,37.0922735 27.9806425,35.7223184 C28.0433735,34.2153677 26.8619396,33.0245605 25.4295816,33.0245605 Z" id="Shape"></path>
                            <path d="M49.6228397,42.3613318 C51.264301,39.5055022 51.2747562,36.1016906 49.64375,33.2563991 L33.2709574,4.67702691 C31.6504064,1.80012108 28.7229594,0.0929461883 25.4400368,0.0929461883 C22.1571141,0.0929461883 19.2296672,1.81065919 17.6091162,4.66648879 L1.21541324,33.2774753 C-0.415592916,36.1543812 -0.405137748,39.5792691 1.24677875,42.4350987 C2.87778491,45.2593139 5.79477669,46.9559507 9.05678901,46.9559507 L41.7605536,46.9559507 C45.033021,46.9559507 47.9709232,45.2382377 49.6228397,42.3613318 Z M46.0680826,40.295861 C45.1584831,41.8765785 43.5483872,42.8144709 41.7500984,42.8144709 L9.04633385,42.8144709 C7.26895534,42.8144709 5.66931468,41.8976547 4.78062543,40.3485516 C3.88148101,38.7783722 3.87102584,36.9025874 4.77017026,35.32187 L21.1638732,6.72142152 C22.0525625,5.15124215 23.6417479,4.22388789 25.4400368,4.22388789 C27.2278705,4.22388789 28.8275111,5.16178027 29.7162004,6.73195964 L46.0994482,35.3324081 C46.9776822,36.8709731 46.9672271,38.7256816 46.0680826,40.295861 Z" id="Shape"></path>
                            <path d="M24.7813612,14.5301659 C23.5371963,14.8884619 22.7635139,16.0265785 22.7635139,17.4070717 C22.8262449,18.239583 22.8785207,19.0826323 22.9412517,19.9151435 C23.1189896,23.0871166 23.2967274,26.195861 23.4744653,29.3678341 C23.5371963,30.442722 24.3631545,31.2225426 25.4295816,31.2225426 C26.4960087,31.2225426 27.3324221,30.3900314 27.384698,29.3046054 C27.384698,28.6512422 27.384698,28.0505695 27.447429,27.3866682 C27.5624358,25.3528117 27.6878978,23.3189552 27.8029047,21.2850987 C27.8656357,19.9678341 27.9806425,18.6505695 28.0433735,17.3333049 C28.0433735,16.8590897 27.9806425,16.437565 27.8029047,16.0160404 C27.2696911,14.8357713 26.0255262,14.2350987 24.7813612,14.5301659 Z" id="Shape"></path>
                        </g>
                    </g>
                </g>
            </g>
        </g>
    </g>
</svg>